<?xml version="1.0" encoding="UTF-8" standalone="no"?>
<svg
   xmlns:dc="http://purl.org/dc/elements/1.1/"
   xmlns:cc="http://creativecommons.org/ns#"
   xmlns:rdf="http://www.w3.org/1999/02/22-rdf-syntax-ns#"
   xmlns:svg="http://www.w3.org/2000/svg"
   xmlns="http://www.w3.org/2000/svg"
   xmlns:sodipodi="http://sodipodi.sourceforge.net/DTD/sodipodi-0.dtd"
   xmlns:inkscape="http://www.inkscape.org/namespaces/inkscape"
   viewBox="0 0 405.23103 207.2368"
   height="207.2368"
   width="405.23105"
   xml:space="preserve"
   id="svg2"
   version="1.1"
   inkscape:version="0.91 r13725"
   sodipodi:docname="logo_rectanglular_alpha.svg"><sodipodi:namedview
     pagecolor="#2c2c2c"
     bordercolor="#666666"
     borderopacity="1"
     objecttolerance="10"
     gridtolerance="10"
     guidetolerance="10"
     inkscape:pageopacity="0"
     inkscape:pageshadow="2"
     inkscape:window-width="1366"
     inkscape:window-height="715"
     id="namedview6110"
     showgrid="false"
     showborder="true"
     fit-margin-top="0"
     fit-margin-left="0"
     fit-margin-right="0"
     fit-margin-bottom="0"
     inkscape:zoom="1.0024868"
     inkscape:cx="94.383982"
     inkscape:cy="97.501373"
     inkscape:window-x="0"
     inkscape:window-y="0"
     inkscape:window-maximized="1"
     inkscape:current-layer="g42"
     inkscape:showpageshadow="false" /><metadata
     id="metadata8"><rdf:RDF><cc:Work
         rdf:about=""><dc:format>image/svg+xml</dc:format><dc:type
           rdf:resource="http://purl.org/dc/dcmitype/StillImage" /><dc:title></dc:title></cc:Work></rdf:RDF></metadata><defs
     id="defs6"><clipPath
       id="clipPath46"
       clipPathUnits="userSpaceOnUse"><path
         id="path44"
         d="m 0,841.89 1190.551,0 0,-841.89 L 0,0 Z"
         inkscape:connector-curvature="0" /></clipPath></defs><text
     style="font-variant:normal;font-weight:normal;font-stretch:normal;font-size:16px;font-family:'Myriad Pro';-inkscape-font-specification:MyriadPro-Regular;writing-mode:lr-tb;fill:#58595b;fill-opacity:1;fill-rule:nonzero;stroke:none"
     id="text14"
     x="-496.59692"
     y="-349.90439"><tspan
       x="-496.59692 -483.06091 -472.03693 -463.36493 -459.54092 -449.01291 -438.67691 -435.28491 -427.39691 -416.37292 -406.56491 -396.77292 -388.88492 -378.45291 -375.06091 -368.13293 -357.10892 -346.77292 -335.74893 -332.3569 -327.44492 -324.05292 -316.67691 -308.66092 -304.88492 -301.10892 -292.43692 -280.66092 -277.26892 -268.2449 -259.46091 -254.16493"
       y="-349.90439"
       id="tspan12">WOKING SQUASH LOGO - yellow dots</tspan></text>
<g
     id="g16"
     transform="matrix(1.3333333,0,0,-1.3333333,-496.59692,-336.6896)"><path
       inkscape:connector-curvature="0"
       d="M 0,0 0.1,0"
       style="fill:none;stroke:#231f20;stroke-width:2;stroke-linecap:round;stroke-linejoin:round;stroke-miterlimit:4;stroke-dasharray:none;stroke-opacity:1"
       id="path18" /></g><g
     id="g20"
     transform="matrix(1.3333333,0,0,-1.3333333,-487.15159,-336.6896)"><path
       inkscape:connector-curvature="0"
       d="M 0,0 1038.144,0"
       style="fill:none;stroke:#231f20;stroke-width:2;stroke-linecap:round;stroke-linejoin:round;stroke-miterlimit:4;stroke-dasharray:0.2, 6.984;stroke-dashoffset:0;stroke-opacity:1"
       id="path22" /></g><g
     id="g24"
     transform="matrix(1.3333333,0,0,-1.3333333,901.69606,-336.6896)"><path
       inkscape:connector-curvature="0"
       d="M 0,0 0.1,0"
       style="fill:none;stroke:#231f20;stroke-width:2;stroke-linecap:round;stroke-linejoin:round;stroke-miterlimit:4;stroke-dasharray:none;stroke-opacity:1"
       id="path26" /></g><g
     id="g28"
     transform="matrix(1.3333333,0,0,-1.3333333,-496.59692,549.60214)"><path
       inkscape:connector-curvature="0"
       d="M 0,0 0.1,0"
       style="fill:none;stroke:#231f20;stroke-width:2;stroke-linecap:round;stroke-linejoin:round;stroke-miterlimit:4;stroke-dasharray:none;stroke-opacity:1"
       id="path30" /></g><g
     id="g32"
     transform="matrix(1.3333333,0,0,-1.3333333,-487.15159,549.60214)"><path
       inkscape:connector-curvature="0"
       d="M 0,0 1038.144,0"
       style="fill:none;stroke:#231f20;stroke-width:2;stroke-linecap:round;stroke-linejoin:round;stroke-miterlimit:4;stroke-dasharray:0.2, 6.984;stroke-dashoffset:0;stroke-opacity:1"
       id="path34" /></g><g
     id="g36"
     transform="matrix(1.3333333,0,0,-1.3333333,901.69606,549.60214)"><path
       inkscape:connector-curvature="0"
       d="M 0,0 0.1,0"
       style="fill:none;stroke:#231f20;stroke-width:2;stroke-linecap:round;stroke-linejoin:round;stroke-miterlimit:4;stroke-dasharray:none;stroke-opacity:1"
       id="path38" /></g><g
     id="g40"
     transform="matrix(1.3333333,0,0,-1.3333333,-591.08519,666.76745)"><g
       id="g42"
       clip-path="url(#clipPath46)"><g
         id="g52"
         transform="translate(456.311,359.4287)"><path
           inkscape:connector-curvature="0"
           d="m 0,0 c 1.012,0 1.951,0.124 2.816,0.369 0.87,0.246 1.617,0.629 2.236,1.149 0.623,0.517 1.116,1.179 1.481,1.983 0.363,0.803 0.543,1.762 0.543,2.879 0,1.036 -0.192,1.924 -0.58,2.664 C 6.106,9.783 5.587,10.386 4.937,10.853 4.291,11.317 3.536,11.654 2.682,11.862 1.828,12.07 0.931,12.174 0,12.174 l -9.881,0 0,-12.174 z m -11.59,13.653 11.59,0 c 1.216,0 2.358,-0.124 3.421,-0.369 1.061,-0.248 1.996,-0.65 2.801,-1.209 C 7.026,11.519 7.653,10.786 8.107,9.882 8.562,8.973 8.788,7.844 8.788,6.496 8.788,4.629 8.265,3.055 7.215,1.77 6.164,0.487 4.706,-0.312 2.836,-0.622 l 0,-0.077 C 4.11,-0.854 5.114,-1.193 5.853,-1.711 6.591,-2.23 7.142,-2.865 7.507,-3.617 7.869,-4.367 8.1,-5.198 8.204,-6.104 8.308,-7.014 8.361,-7.921 8.361,-8.827 l 0,-1.597 c 0,-0.519 0.023,-1.004 0.077,-1.458 0.05,-0.455 0.135,-0.876 0.254,-1.264 0.116,-0.389 0.278,-0.711 0.485,-0.972 l -1.905,0 c -0.365,0.648 -0.565,1.407 -0.604,2.275 -0.038,0.868 -0.058,1.771 -0.058,2.702 0,0.935 -0.038,1.863 -0.114,2.783 -0.081,0.92 -0.328,1.742 -0.74,2.469 C 5.341,-3.163 4.683,-2.581 3.79,-2.14 2.897,-1.697 1.632,-1.479 0,-1.479 l -9.881,0 0,-12.639 -1.709,0 z"
           style="fill:#ffffff;fill-opacity:1;fill-rule:nonzero;stroke:none"
           id="path54" /></g><g
         id="g56"
         transform="translate(487.5405,355.6963)"><path
           inkscape:connector-curvature="0"
           d="m 0,0 -5.949,15.712 -0.077,0 L -12.214,0 Z m -6.961,17.386 1.866,0 10.97,-27.772 -1.832,0 -3.497,8.908 -13.302,0 -3.54,-8.908 -1.828,0 z"
           style="fill:#ffffff;fill-opacity:1;fill-rule:nonzero;stroke:none"
           id="path58" /></g><g
         id="g60"
         transform="translate(496.7593,359.1953)"><path
           inkscape:connector-curvature="0"
           d="m 0,0 c 0,2.024 0.297,3.923 0.896,5.699 0.593,1.776 1.459,3.319 2.586,4.626 1.128,1.311 2.513,2.342 4.16,3.093 1.647,0.753 3.509,1.13 5.584,1.13 1.63,0 3.046,-0.215 4.239,-0.644 1.189,-0.427 2.198,-0.959 3.013,-1.595 0.816,-0.634 1.486,-1.328 2.005,-2.08 0.516,-0.752 0.912,-1.458 1.185,-2.12 0.273,-0.661 0.462,-1.231 0.565,-1.71 0.101,-0.481 0.155,-0.747 0.155,-0.798 l -1.713,0 c -0.18,1.168 -0.558,2.212 -1.127,3.131 -0.569,0.92 -1.285,1.706 -2.14,2.354 -0.854,0.648 -1.807,1.14 -2.858,1.477 -1.051,0.337 -2.159,0.506 -3.324,0.506 -1.817,0 -3.437,-0.35 -4.864,-1.05 C 6.938,11.319 5.729,10.378 4.745,9.198 3.76,8.02 3.009,6.639 2.49,5.057 1.97,3.476 1.713,1.79 1.713,0 c 0,-1.789 0.257,-3.475 0.777,-5.056 0.519,-1.584 1.27,-2.963 2.255,-4.142 0.984,-1.18 2.193,-2.12 3.617,-2.821 1.427,-0.698 3.047,-1.048 4.864,-1.048 1.346,0 2.612,0.278 3.789,0.835 1.181,0.558 2.213,1.296 3.093,2.216 0.882,0.919 1.59,1.985 2.121,3.192 0.532,1.204 0.834,2.455 0.913,3.752 l 1.711,0 c -0.153,-1.661 -0.565,-3.191 -1.223,-4.59 -0.662,-1.401 -1.504,-2.611 -2.527,-3.637 -1.025,-1.025 -2.214,-1.82 -3.561,-2.391 -1.351,-0.572 -2.79,-0.857 -4.316,-0.857 -2.075,0 -3.937,0.378 -5.584,1.128 -1.647,0.754 -3.032,1.784 -4.16,3.094 -1.127,1.307 -1.993,2.85 -2.586,4.627 C 0.297,-3.923 0,-2.022 0,0"
           style="fill:#ffffff;fill-opacity:1;fill-rule:nonzero;stroke:none"
           id="path62" /></g><g
         id="g64"
         transform="translate(528.3042,373.082)"><path
           inkscape:connector-curvature="0"
           d="m 0,0 1.708,0 0,-15.986 L 19.174,0 21.39,0 8.711,-11.553 l 13.456,-16.218 -2.139,0 -12.564,15.052 -5.756,-5.251 0,-9.801 -1.708,0 z"
           style="fill:#ffffff;fill-opacity:1;fill-rule:nonzero;stroke:none"
           id="path66" /></g><g
         id="g68"
         transform="translate(555.2583,373.082)"><path
           inkscape:connector-curvature="0"
           d="m 0,0 18.669,0 0,-1.479 -16.961,0 0,-11.122 15.949,0 0,-1.479 -15.949,0 0,-12.213 17.153,0 0,-1.478 -18.861,0 z"
           style="fill:#ffffff;fill-opacity:1;fill-rule:nonzero;stroke:none"
           id="path70" /></g><g
         id="g72"
         transform="translate(577.1558,371.6025)"><path
           inkscape:connector-curvature="0"
           d="m 0,0 0,1.479 21.274,0 0,-1.479 -9.799,0 0,-26.292 -1.716,0 0,26.292 z"
           style="fill:#ffffff;fill-opacity:1;fill-rule:nonzero;stroke:none"
           id="path74" /></g><g
         id="g76"
         transform="translate(621.1064,365.1455)"><path
           inkscape:connector-curvature="0"
           d="m 0,0 c -0.055,1.193 -0.305,2.232 -0.758,3.112 -0.455,0.883 -1.07,1.621 -1.851,2.218 -0.774,0.596 -1.704,1.042 -2.778,1.343 -1.078,0.297 -2.252,0.446 -3.521,0.446 -0.778,0 -1.612,-0.091 -2.51,-0.273 -0.895,-0.181 -1.723,-0.498 -2.488,-0.952 -0.766,-0.454 -1.393,-1.065 -1.887,-1.828 -0.492,-0.766 -0.738,-1.718 -0.738,-2.859 0,-1.116 0.273,-2.022 0.816,-2.725 0.545,-0.698 1.258,-1.261 2.139,-1.691 0.883,-0.427 1.894,-0.771 3.033,-1.03 1.143,-0.258 2.297,-0.505 3.463,-0.74 1.191,-0.233 2.351,-0.511 3.48,-0.834 1.129,-0.326 2.141,-0.766 3.034,-1.325 0.896,-0.554 1.617,-1.281 2.16,-2.175 0.545,-0.897 0.814,-2.016 0.814,-3.365 0,-1.452 -0.308,-2.673 -0.931,-3.657 -0.623,-0.985 -1.409,-1.79 -2.354,-2.41 -0.947,-0.624 -1.998,-1.07 -3.148,-1.344 -1.159,-0.27 -2.266,-0.408 -3.329,-0.408 -1.63,0 -3.164,0.176 -4.589,0.526 -1.424,0.35 -2.67,0.918 -3.733,1.711 -1.062,0.791 -1.902,1.81 -2.51,3.055 -0.607,1.242 -0.9,2.761 -0.873,4.549 l 1.713,0 c -0.082,-1.53 0.137,-2.821 0.658,-3.868 0.518,-1.052 1.239,-1.915 2.157,-2.589 0.92,-0.675 2.006,-1.161 3.248,-1.458 1.248,-0.298 2.556,-0.447 3.929,-0.447 0.833,0 1.721,0.103 2.666,0.31 0.948,0.208 1.813,0.559 2.606,1.051 0.789,0.491 1.451,1.141 1.982,1.945 0.534,0.802 0.799,1.814 0.799,3.034 0,1.165 -0.273,2.12 -0.818,2.86 -0.543,0.738 -1.262,1.335 -2.154,1.788 -0.899,0.454 -1.911,0.815 -3.038,1.09 -1.127,0.27 -2.289,0.524 -3.482,0.757 -1.166,0.233 -2.32,0.505 -3.459,0.816 -1.143,0.311 -2.154,0.733 -3.037,1.264 -0.881,0.533 -1.592,1.22 -2.139,2.062 -0.541,0.843 -0.816,1.925 -0.816,3.248 0,1.322 0.277,2.457 0.836,3.404 0.558,0.946 1.285,1.711 2.181,2.295 0.893,0.582 1.897,1.009 3.014,1.283 1.111,0.271 2.217,0.409 3.305,0.409 1.455,0 2.804,-0.162 4.062,-0.488 1.26,-0.323 2.36,-0.829 3.311,-1.515 C -0.588,5.905 0.17,5.019 0.738,3.929 1.307,2.841 1.631,1.531 1.713,0 Z"
           style="fill:#ffffff;fill-opacity:1;fill-rule:nonzero;stroke:none"
           id="path78" /></g><g
         id="g80"
         transform="translate(643.4697,359.1953)"><path
           inkscape:connector-curvature="0"
           d="m 0,0 c 0,2.024 0.297,3.923 0.893,5.699 0.595,1.776 1.457,3.319 2.587,4.626 1.127,1.311 2.516,2.342 4.165,3.093 1.642,0.753 3.503,1.13 5.578,1.13 1.631,0 3.047,-0.215 4.24,-0.644 1.193,-0.427 2.197,-0.959 3.014,-1.595 0.818,-0.634 1.484,-1.328 2.003,-2.08 0.516,-0.752 0.913,-1.458 1.186,-2.12 0.273,-0.661 0.461,-1.231 0.566,-1.71 0.102,-0.481 0.155,-0.747 0.155,-0.798 l -1.711,0 c -0.184,1.168 -0.561,2.212 -1.131,3.131 -0.568,0.92 -1.279,1.706 -2.139,2.354 -0.853,0.648 -1.808,1.14 -2.857,1.477 -1.053,0.337 -2.16,0.506 -3.326,0.506 -1.817,0 -3.436,-0.35 -4.864,-1.05 C 6.936,11.319 5.73,10.378 4.742,9.198 3.758,8.02 3.006,6.639 2.49,5.057 1.971,3.476 1.711,1.79 1.711,0 c 0,-1.789 0.26,-3.475 0.779,-5.056 0.516,-1.584 1.268,-2.963 2.252,-4.142 0.988,-1.18 2.194,-2.12 3.617,-2.821 1.428,-0.698 3.047,-1.048 4.864,-1.048 1.347,0 2.613,0.278 3.795,0.835 1.175,0.558 2.209,1.296 3.087,2.216 0.883,0.919 1.59,1.985 2.122,3.192 0.531,1.204 0.839,2.455 0.916,3.752 l 1.709,0 c -0.155,-1.661 -0.563,-3.191 -1.225,-4.59 -0.662,-1.401 -1.504,-2.611 -2.527,-3.637 -1.024,-1.025 -2.209,-1.82 -3.559,-2.391 -1.348,-0.572 -2.787,-0.857 -4.318,-0.857 -2.075,0 -3.936,0.378 -5.578,1.128 -1.649,0.754 -3.038,1.784 -4.165,3.094 -1.13,1.307 -1.992,2.85 -2.587,4.627 C 0.297,-3.923 0,-2.022 0,0"
           style="fill:#ffffff;fill-opacity:1;fill-rule:nonzero;stroke:none"
           id="path82" /></g><g
         id="g84"
         transform="translate(675.0107,373.082)"><path
           inkscape:connector-curvature="0"
           d="m 0,0 1.713,0 0,-26.293 15.754,0 0,-1.478 -17.467,0 z"
           style="fill:#ffffff;fill-opacity:1;fill-rule:nonzero;stroke:none"
           id="path86" /></g><g
         id="g88"
         transform="translate(698.1143,373.082)"><path
           inkscape:connector-curvature="0"
           d="m 0,0 0,-16.647 c 0,-0.546 0.027,-1.182 0.082,-1.907 0.049,-0.727 0.18,-1.471 0.389,-2.235 0.203,-0.766 0.496,-1.518 0.873,-2.258 0.373,-0.738 0.888,-1.4 1.535,-1.983 0.65,-0.582 1.445,-1.048 2.392,-1.401 0.948,-0.349 2.094,-0.523 3.444,-0.523 1.709,0 3.144,0.239 4.295,0.72 1.154,0.476 2.09,1.164 2.801,2.06 0.712,0.895 1.228,1.978 1.539,3.248 0.308,1.27 0.466,2.697 0.466,4.279 l 0,16.647 1.713,0 0,-16.647 c 0,-1.66 -0.179,-3.204 -0.529,-4.629 -0.35,-1.426 -0.939,-2.67 -1.77,-3.735 -0.828,-1.064 -1.935,-1.898 -3.324,-2.509 -1.385,-0.61 -3.121,-0.914 -5.191,-0.914 -1.635,0 -3.035,0.208 -4.201,0.622 -1.166,0.416 -2.137,0.955 -2.897,1.616 -0.765,0.661 -1.371,1.419 -1.81,2.275 -0.442,0.855 -0.778,1.717 -1.012,2.587 -0.234,0.868 -0.377,1.711 -0.426,2.526 -0.055,0.82 -0.078,1.537 -0.078,2.161 l 0,16.647 z"
           style="fill:#ffffff;fill-opacity:1;fill-rule:nonzero;stroke:none"
           id="path90" /></g><g
         id="g92"
         transform="translate(736.7764,346.7891)"><path
           inkscape:connector-curvature="0"
           d="M 0,0 C 2.49,0 4.441,0.524 5.854,1.575 7.266,2.623 7.973,4.201 7.973,6.301 7.973,7.493 7.727,8.472 7.234,9.235 6.742,10.001 6.111,10.604 5.35,11.047 4.584,11.486 3.725,11.791 2.783,11.959 1.836,12.128 0.908,12.213 0,12.213 l -9.41,0 0,-12.213 z m 0,13.692 c 2.359,0 4.121,0.523 5.289,1.574 1.168,1.049 1.75,2.431 1.75,4.142 0,1.012 -0.193,1.861 -0.582,2.547 -0.389,0.689 -0.908,1.244 -1.559,1.674 -0.644,0.427 -1.392,0.73 -2.234,0.914 C 1.82,24.724 0.932,24.813 0,24.813 l -9.41,0 0,-11.121 z m -11.123,12.601 11.123,0 c 1.658,0 3.049,-0.209 4.16,-0.623 1.115,-0.415 2.014,-0.96 2.686,-1.633 0.674,-0.676 1.16,-1.446 1.459,-2.314 0.297,-0.87 0.447,-1.746 0.447,-2.626 0,-0.754 -0.131,-1.467 -0.391,-2.14 C 8.105,16.282 7.736,15.687 7.254,15.169 6.773,14.65 6.203,14.215 5.543,13.865 4.885,13.516 4.148,13.287 3.344,13.186 l 0.078,-0.08 C 3.605,13.134 4.033,13.053 4.707,12.874 5.381,12.691 6.088,12.348 6.826,11.843 7.566,11.337 8.229,10.637 8.809,9.742 9.395,8.847 9.686,7.7 9.686,6.301 9.686,5.028 9.451,3.915 8.986,2.956 8.52,1.996 7.863,1.187 7.02,0.524 6.182,-0.138 5.16,-0.636 3.967,-0.973 2.775,-1.312 1.451,-1.479 0,-1.479 l -11.123,0 z"
           style="fill:#ffffff;fill-opacity:1;fill-rule:nonzero;stroke:none"
           id="path94" /></g><g
         id="g96"
         transform="translate(456.6982,400.2383)"><path
           inkscape:connector-curvature="0"
           d="m 0,0 c 0.63,-1.213 1.466,-2.193 2.51,-2.945 1.042,-0.752 2.266,-1.309 3.674,-1.674 1.405,-0.363 2.86,-0.545 4.364,-0.545 1.018,0 2.11,0.084 3.274,0.254 1.163,0.17 2.255,0.498 3.273,0.982 1.018,0.485 1.866,1.153 2.546,2 0.679,0.85 1.019,1.928 1.019,3.239 0,1.406 -0.45,2.544 -1.346,3.418 -0.898,0.873 -2.073,1.601 -3.528,2.183 -1.455,0.582 -3.104,1.09 -4.947,1.527 -1.843,0.436 -3.71,0.92 -5.601,1.456 -1.941,0.484 -3.832,1.078 -5.675,1.781 -1.843,0.703 -3.491,1.611 -4.946,2.728 -1.455,1.116 -2.631,2.51 -3.528,4.184 -0.898,1.672 -1.346,3.697 -1.346,6.072 0,2.668 0.569,4.984 1.71,6.948 1.139,1.965 2.63,3.601 4.473,4.91 1.843,1.31 3.928,2.279 6.257,2.91 2.327,0.63 4.655,0.946 6.983,0.946 2.715,0 5.322,-0.303 7.82,-0.91 2.497,-0.606 4.716,-1.589 6.656,-2.946 1.939,-1.357 3.479,-3.091 4.619,-5.201 1.139,-2.109 1.71,-4.668 1.71,-7.674 l -11.057,0 c -0.098,1.551 -0.425,2.837 -0.982,3.856 -0.558,1.017 -1.298,1.818 -2.219,2.4 -0.922,0.582 -1.977,0.993 -3.165,1.236 C 11.36,31.377 10.063,31.5 8.657,31.5 7.735,31.5 6.813,31.401 5.893,31.208 4.971,31.014 4.134,30.674 3.383,30.19 2.63,29.705 2.012,29.098 1.528,28.371 1.042,27.644 0.8,26.722 0.8,25.607 c 0,-1.019 0.194,-1.843 0.582,-2.474 0.388,-0.631 1.152,-1.213 2.292,-1.746 1.139,-0.533 2.715,-1.067 4.728,-1.6 2.012,-0.533 4.643,-1.213 7.893,-2.037 0.97,-0.193 2.315,-0.545 4.037,-1.055 1.721,-0.509 3.431,-1.322 5.128,-2.437 1.698,-1.115 3.165,-2.608 4.402,-4.473 1.236,-1.867 1.855,-4.256 1.855,-7.166 0,-2.377 -0.462,-4.582 -1.383,-6.619 -0.921,-2.037 -2.291,-3.795 -4.109,-5.273 -1.819,-1.481 -4.074,-2.633 -6.766,-3.457 -2.691,-0.823 -5.808,-1.237 -9.347,-1.237 -2.862,0 -5.638,0.354 -8.33,1.055 -2.691,0.703 -5.068,1.807 -7.129,3.31 -2.061,1.502 -3.698,3.42 -4.91,5.747 -1.213,2.328 -1.795,5.093 -1.745,8.293 l 11.057,0 C -0.945,2.691 -0.631,1.213 0,0"
           style="fill:#ffffff;fill-opacity:1;fill-rule:nonzero;stroke:none"
           id="path98" /></g><g
         id="g100"
         transform="translate(531.042,389.2539)"><path
           inkscape:connector-curvature="0"
           d="m 0,0 c -3.444,-1.986 -7.638,-2.982 -12.585,-2.982 -3.977,0 -7.554,0.691 -10.729,2.074 -3.177,1.381 -5.856,3.285 -8.039,5.711 -2.182,2.424 -3.855,5.273 -5.019,8.547 -1.164,3.273 -1.746,6.8 -1.746,10.584 0,3.879 0.582,7.48 1.746,10.802 1.164,3.321 2.837,6.22 5.019,8.693 2.183,2.474 4.862,4.412 8.039,5.82 3.175,1.406 6.752,2.109 10.729,2.109 4.025,0 7.613,-0.703 10.767,-2.109 3.151,-1.408 5.819,-3.346 8.001,-5.82 2.183,-2.473 3.856,-5.372 5.02,-8.693 1.164,-3.322 1.746,-6.923 1.746,-10.802 0,-3.784 -0.582,-7.299 -1.746,-10.549 C 10.039,10.137 8.366,7.275 6.183,4.803 L 12.658,-1.09 7.347,-6.619 Z"
           style="fill:#fecc07;fill-opacity:1;fill-rule:nonzero;stroke:none"
           id="path102" /></g><g
         id="g104"
         transform="translate(589.9648,391.4004)"><path
           inkscape:connector-curvature="0"
           d="m 0,0 c -3.928,-3.418 -9.36,-5.129 -16.294,-5.129 -7.033,0 -12.476,1.697 -16.331,5.092 -3.856,3.394 -5.784,8.633 -5.784,15.713 l 0,32.299 11.421,0 0,-32.299 c 0,-1.406 0.12,-2.789 0.364,-4.147 0.242,-1.357 0.751,-2.558 1.527,-3.599 0.776,-1.043 1.855,-1.893 3.238,-2.547 1.381,-0.654 3.236,-0.983 5.565,-0.983 4.073,0 6.885,0.911 8.438,2.729 1.551,1.818 2.328,4.668 2.328,8.547 l 0,32.299 11.421,0 0,-32.299 C 5.893,8.645 3.928,3.42 0,0"
           style="fill:#ffffff;fill-opacity:1;fill-rule:nonzero;stroke:none"
           id="path106" /></g><g
         id="g108"
         transform="translate(632.2295,407.5137)"><path
           inkscape:connector-curvature="0"
           d="m 0,0 -6.547,19.059 -0.144,0 L -13.457,0 Z m -0.654,31.862 19.422,-51.94 -11.858,0 -3.928,11.566 -19.421,0 -4.075,-11.566 -11.494,0 19.641,51.94 z"
           style="fill:#ffffff;fill-opacity:1;fill-rule:nonzero;stroke:none"
           id="path110" /></g><g
         id="g112"
         transform="translate(664.2373,400.2383)"><path
           inkscape:connector-curvature="0"
           d="m 0,0 c 0.629,-1.213 1.465,-2.193 2.51,-2.945 1.041,-0.752 2.265,-1.309 3.672,-1.674 1.406,-0.363 2.861,-0.545 4.365,-0.545 1.019,0 2.109,0.084 3.273,0.254 1.164,0.17 2.256,0.498 3.274,0.982 1.019,0.485 1.867,1.153 2.547,2 0.677,0.85 1.017,1.928 1.017,3.239 0,1.406 -0.449,2.544 -1.345,3.418 C 18.414,5.602 17.24,6.33 15.785,6.912 14.33,7.494 12.68,8.002 10.838,8.439 8.994,8.875 7.129,9.359 5.236,9.895 c -1.939,0.484 -3.832,1.078 -5.674,1.781 -1.843,0.703 -3.492,1.611 -4.947,2.728 -1.453,1.116 -2.631,2.51 -3.527,4.184 -0.899,1.672 -1.346,3.697 -1.346,6.072 0,2.668 0.57,4.984 1.709,6.948 1.139,1.965 2.631,3.601 4.475,4.91 1.842,1.31 3.928,2.279 6.256,2.91 2.328,0.63 4.656,0.946 6.982,0.946 2.717,0 5.322,-0.303 7.82,-0.91 2.498,-0.606 4.717,-1.589 6.657,-2.946 1.939,-1.357 3.48,-3.091 4.619,-5.201 1.138,-2.109 1.711,-4.668 1.711,-7.674 l -11.059,0 c -0.098,1.551 -0.424,2.837 -0.982,3.856 -0.557,1.017 -1.297,1.818 -2.217,2.4 -0.922,0.582 -1.977,0.993 -3.166,1.236 C 11.359,31.377 10.063,31.5 8.656,31.5 7.734,31.5 6.813,31.401 5.891,31.208 4.969,31.014 4.133,30.674 3.381,30.19 2.629,29.705 2.012,29.098 1.527,28.371 1.041,27.644 0.799,26.722 0.799,25.607 c 0,-1.019 0.193,-1.843 0.582,-2.474 0.389,-0.631 1.152,-1.213 2.291,-1.746 1.141,-0.533 2.717,-1.067 4.728,-1.6 2.012,-0.533 4.645,-1.213 7.893,-2.037 0.971,-0.193 2.316,-0.545 4.039,-1.055 1.721,-0.509 3.43,-1.322 5.127,-2.437 1.697,-1.115 3.166,-2.608 4.402,-4.473 1.237,-1.867 1.854,-4.256 1.854,-7.166 0,-2.377 -0.461,-4.582 -1.381,-6.619 -0.922,-2.037 -2.291,-3.795 -4.111,-5.273 -1.819,-1.481 -4.073,-2.633 -6.764,-3.457 -2.691,-0.823 -5.809,-1.237 -9.348,-1.237 -2.863,0 -5.638,0.354 -8.33,1.055 -2.691,0.703 -5.068,1.807 -7.129,3.31 -2.062,1.502 -3.699,3.42 -4.91,5.747 -1.213,2.328 -1.795,5.093 -1.746,8.293 l 11.057,0 C -0.947,2.691 -0.631,1.213 0,0"
           style="fill:#ffffff;fill-opacity:1;fill-rule:nonzero;stroke:none"
           id="path114" /></g><g
         id="g116"
         transform="translate(714.1377,439.3755)"><path
           inkscape:connector-curvature="0"
           d="m 0,0 0,-19.932 21.023,0 0,19.932 11.42,0 0,-51.94 -11.42,0 0,22.406 -21.023,0 0,-22.406 -11.42,0 0,51.94 z"
           style="fill:#ffffff;fill-opacity:1;fill-rule:nonzero;stroke:none"
           id="path118" /></g><g
         id="g120"
         transform="translate(486.2329,446.8999)"><path
           inkscape:connector-curvature="0"
           d="m 0,0 -8.802,35.354 -0.145,0 L -17.604,0 -29.17,0 l -13.749,51.939 11.421,0 8.22,-35.353 0.146,0 9.02,35.353 10.693,0 8.875,-35.79 0.146,0 8.511,35.79 11.202,0 L 11.348,0 Z"
           style="fill:#ffffff;fill-opacity:1;fill-rule:nonzero;stroke:none"
           id="path122" /></g><g
         id="g124"
         transform="translate(516.2754,483.4536)"><path
           inkscape:connector-curvature="0"
           d="m 0,0 c 1.164,3.321 2.837,6.22 5.019,8.693 2.183,2.474 4.862,4.412 8.039,5.82 3.175,1.406 6.752,2.109 10.729,2.109 4.025,0 7.613,-0.703 10.767,-2.109 3.152,-1.408 5.819,-3.346 8.001,-5.82 2.183,-2.473 3.856,-5.372 5.02,-8.693 1.164,-3.322 1.746,-6.923 1.746,-10.802 0,-3.783 -0.582,-7.311 -1.746,-10.585 -1.164,-3.273 -2.837,-6.123 -5.02,-8.547 -2.182,-2.425 -4.849,-4.329 -8.001,-5.711 -3.154,-1.381 -6.742,-2.073 -10.767,-2.073 -3.977,0 -7.554,0.692 -10.729,2.073 -3.177,1.382 -5.856,3.286 -8.039,5.711 -2.182,2.424 -3.855,5.274 -5.019,8.547 -1.164,3.274 -1.746,6.802 -1.746,10.585 0,3.879 0.582,7.48 1.746,10.802"
           style="fill:#fecc07;fill-opacity:1;fill-rule:nonzero;stroke:none"
           id="path126" /></g><g
         id="g128"
         transform="translate(584.8008,498.8394)"><path
           inkscape:connector-curvature="0"
           d="M 0,0 0,-21.532 20.296,0 34.554,0 14.258,-20.514 l 22.261,-31.425 -14.332,0 -15.64,23.35 -6.547,-6.619 0,-16.731 -11.421,0 0,51.939 z"
           style="fill:#ffffff;fill-opacity:1;fill-rule:nonzero;stroke:none"
           id="path130" /></g><path
         inkscape:connector-curvature="0"
         d="m 637.321,446.9 -11.422,0 0,51.939 11.422,0 z"
         style="fill:#ffffff;fill-opacity:1;fill-rule:nonzero;stroke:none"
         id="path132" /><g
         id="g134"
         transform="translate(658.708,498.8394)"><path
           inkscape:connector-curvature="0"
           d="m 0,0 21.678,-34.845 0.144,0 0,34.845 10.694,0 0,-51.939 -11.42,0 -21.606,34.771 -0.144,0 0,-34.771 -10.694,0 0,51.939 z"
           style="fill:#ffffff;fill-opacity:1;fill-rule:nonzero;stroke:none"
           id="path136" /></g><g
         id="g138"
         transform="translate(732.0342,447.3003)"><path
           inkscape:connector-curvature="0"
           d="m 0,0 c -2.473,-1.043 -4.973,-1.564 -7.492,-1.564 -3.979,0 -7.555,0.691 -10.731,2.073 -3.177,1.382 -5.855,3.285 -8.039,5.711 -2.181,2.424 -3.855,5.273 -5.019,8.547 -1.162,3.273 -1.744,6.801 -1.744,10.585 0,3.878 0.582,7.479 1.744,10.801 1.164,3.322 2.838,6.22 5.019,8.694 2.184,2.473 4.862,4.412 8.039,5.819 3.176,1.406 6.752,2.109 10.731,2.109 2.666,0 5.248,-0.399 7.746,-1.2 2.498,-0.8 4.752,-1.976 6.766,-3.528 2.011,-1.552 3.673,-3.468 4.982,-5.746 1.311,-2.28 2.109,-4.9 2.4,-7.857 l -10.91,0 c -0.679,2.91 -1.99,5.092 -3.93,6.547 -1.939,1.455 -4.291,2.183 -7.054,2.183 -2.572,0 -4.754,-0.498 -6.547,-1.491 -1.795,-0.995 -3.25,-2.329 -4.365,-4.001 -1.117,-1.674 -1.928,-3.578 -2.438,-5.711 -0.51,-2.135 -0.763,-4.341 -0.763,-6.619 0,-2.183 0.253,-4.305 0.763,-6.366 0.51,-2.062 1.321,-3.917 2.438,-5.565 1.115,-1.65 2.57,-2.971 4.365,-3.965 1.793,-0.994 3.975,-1.491 6.547,-1.491 3.781,0 6.703,0.957 8.765,2.874 2.061,1.915 3.26,4.691 3.6,8.329 l -11.492,0 0,8.511 21.822,0 0,-28.079 -7.273,0 -1.164,5.892 C 4.729,2.873 2.473,1.042 0,0"
           style="fill:#ffffff;fill-opacity:1;fill-rule:nonzero;stroke:none"
           id="path140" /></g></g></g></svg>